<?xml version="1.0" encoding="UTF-8" standalone="no"?>
<svg
   xmlns:dc="http://purl.org/dc/elements/1.1/"
   xmlns:cc="http://creativecommons.org/ns#"
   xmlns:rdf="http://www.w3.org/1999/02/22-rdf-syntax-ns#"
   xmlns:svg="http://www.w3.org/2000/svg"
   xmlns="http://www.w3.org/2000/svg"
   xmlns:sodipodi="http://sodipodi.sourceforge.net/DTD/sodipodi-0.dtd"
   xmlns:inkscape="http://www.inkscape.org/namespaces/inkscape"
   width="512"
   height="512"
   viewBox="0 0 512 512"
   version="1.1"
   id="svg8"
   sodipodi:docname="favicon_cb_dark.svg"
   inkscape:version="1.0.1 (3bc2e813f5, 2020-09-07)">
  <metadata
     id="metadata14">
    <rdf:RDF>
      <cc:Work
         rdf:about="">
        <dc:format>image/svg+xml</dc:format>
        <dc:type
           rdf:resource="http://purl.org/dc/dcmitype/StillImage" />
      </cc:Work>
    </rdf:RDF>
  </metadata>
  <defs
     id="defs12" />
  <sodipodi:namedview
     pagecolor="#ffffff"
     bordercolor="#666666"
     borderopacity="1"
     objecttolerance="10"
     gridtolerance="10"
     guidetolerance="10"
     inkscape:pageopacity="0"
     inkscape:pageshadow="2"
     inkscape:window-width="1440"
     inkscape:window-height="894"
     id="namedview10"
     showgrid="false"
     inkscape:zoom="0.138973"
     inkscape:cx="-2117.5604"
     inkscape:cy="-51.035193"
     inkscape:window-x="0"
     inkscape:window-y="0"
     inkscape:window-maximized="1"
     inkscape:current-layer="svg8"
     inkscape:document-rotation="0" />
  <!-- corner notch -->
  <g
     id="g882"
     transform="matrix(8.7967668,0,0,8.7967668,6181.849,5678.7979)">
    <path
       class="cls-3"
       d="m -674.25859,-604.47428 c -1.67,0 -3.24,-0.41 -4.62,-1.12 -0.49,-0.25 -1.08,-0.15 -1.47,0.24 l -10.97,10.97 c -0.55,0.55 -0.48,1.46 0.14,1.94 4.7,3.59 10.56,5.73 16.94,5.73 2.48,0 4.88,-0.33 7.16,-0.93 0.76,-0.2 1.17,-1.01 0.87,-1.74 l -5.94,-14.34 c -0.21,-0.52 -0.74,-0.83 -1.3,-0.78 -0.26,0.02 -0.52,0.03 -0.79,0.03"
       id="path6"
       style="fill:#4ebcc2" />
    <path
       class="cls-2"
       d="m -668.03859,-605.44428 5.94,14.34 c 0.3,0.72 1.17,1.01 1.84,0.61 7.3,-4.24 12.49,-11.7 13.65,-20.43 0.1,-0.77 -0.49,-1.47 -1.27,-1.47 h -15.52 c -0.55,0 -1.04,0.34 -1.21,0.86 -0.59,1.82 -1.67,3.42 -3.1,4.63 -0.42,0.35 -0.55,0.94 -0.34,1.45"
       id="path8"
       style="fill:#badfe1" />
    <path
       class="cls-4"
       d="m -676.49859,-625.48428 v -15.52 c 0,-0.78 -0.69,-1.37 -1.47,-1.27 -8.73,1.16 -16.18,6.35 -20.43,13.65 -0.39,0.67 -0.11,1.54 0.61,1.84 l 14.34,5.94 c 0.5,0.21 1.09,0.08 1.45,-0.34 1.21,-1.43 2.81,-2.51 4.63,-3.1 0.52,-0.17 0.86,-0.66 0.86,-1.21"
       id="path10"
       style="fill:#007788" />
    <path
       class="cls-5"
       d="m -684.40859,-614.62428 c 0,-0.27 0.01,-0.53 0.03,-0.79 0.05,-0.56 -0.26,-1.09 -0.78,-1.3 l -14.34,-5.94 c -0.72,-0.3 -1.54,0.11 -1.74,0.87 -0.61,2.29 -0.93,4.68 -0.93,7.16 0,6.37 2.14,12.24 5.73,16.94 0.47,0.62 1.38,0.69 1.94,0.14 l 10.97,-10.97 c 0.39,-0.39 0.49,-0.98 0.24,-1.47 -0.71,-1.39 -1.12,-2.96 -1.12,-4.62"
       id="path12"
       style="fill:#009db5" />
    <path
       class="cls-1"
       d="m -647.71859,-618.32428 h -21.57 c -0.7,0 -1.26,-0.57 -1.26,-1.26 v -21.57 c 0,-0.7 0.57,-1.26 1.26,-1.26 h 21.57 c 0.7,0 1.26,0.57 1.26,1.26 v 21.57 c 0,0.7 -0.57,1.26 -1.26,1.26"
       id="path14"
       style="fill:#f8b617" />
  </g>
  <!-- initials -->
  <text
     x="273.22293"
     y="333.3277"
     text-anchor="middle"
     font-family="Inter, Montserrat, Arial, sans-serif"
     font-size="338.603px"
     font-weight="700"
     fill="#ffffff"
     id="text6"
     style="fill:#2d4645;fill-opacity:1;stroke:#ffffff;stroke-width:5;stroke-miterlimit:4;stroke-dasharray:none;stroke-opacity:1">CB</text>
</svg>
