<?xml version="1.0" encoding="UTF-8"?>
<svg xmlns="http://www.w3.org/2000/svg" viewBox="0 0 64 64" role="img" aria-labelledby="title description">
  <title id="title">Cédric Brun</title>
  <desc id="description">White CB monogram on a blue rounded square</desc>
  <rect x="1" y="1" width="62" height="62" rx="14" fill="#315f9c"/>
  <path
    d="M28.5 19.5A15 15 0 1 0 28.5 44.5"
    fill="none"
    stroke="#fff"
    stroke-width="7"
    stroke-linecap="round"/>
  <path
    fill="#fff"
    fill-rule="evenodd"
    d="M34 15h9c8 0 12 4 12 10 0 4-2 7-5 9 4.5 1.5 7 5 7 9.5C57 50.5 52 54 43 54h-9V15Zm7 6v10h2c3.5 0 5.5-2 5.5-5S46.5 21 43 21h-2Zm0 16v11h2.5c4.5 0 7-2 7-5.5s-2.5-5.5-7-5.5H41Z"/>
</svg>
