<?xml version="1.0" encoding="UTF-8"?>
<svg id="Calque_1" data-name="Calque 1" xmlns="http://www.w3.org/2000/svg" viewBox="0 0 2048 500">
  <defs>
    <style>
      .cls-1 {
        isolation: isolate;
      }

      .cls-2 {
        fill: #fff;
      }
    </style>
  </defs>
  <path class="cls-2" d="M9.89,338.38c0,12.4,10.95,22.45,24.47,22.45h364.43c13.51,0,24.47-10.05,24.47-22.45v-40.29c0-12.4-10.96-22.45-24.47-22.45H34.36c-13.52,0-24.47,10.05-24.47,22.45v40.29Z"/>
  <g class="cls-1">
    <path class="cls-2" d="M523.75,216.02c0-24.41,4.05-45.93,12.15-64.53,8.1-18.61,19.32-34.21,33.68-46.81,14.35-12.6,30.94-22.1,49.77-28.5,18.83-6.4,38.97-9.6,60.43-9.6,15.2,0,27.95.75,38.26,2.25,10.3,1.5,18.97,3.13,26,4.9,7.03,1.76,13.32,3.17,18.86,4.21l-8.95,53.27c-2.7-1.57-6.79-3.62-12.26-6.17-5.47-2.55-12.86-4.83-22.17-6.85-9.31-2.02-20.92-3.04-34.85-3.04-18.05,0-34.03,3.85-47.96,11.55-13.93,7.71-24.87,18.8-32.82,33.29-7.96,14.49-11.94,31.99-11.94,52.49s3.66,38.52,10.98,54.05c7.32,15.54,18.08,27.71,32.29,36.53,14.21,8.81,31.55,13.22,52.01,13.22,9.52,0,19.18-.98,28.99-2.94,9.8-1.96,18.54-4.34,26.22-7.15,7.67-2.81,13.35-5.58,17.05-8.32v50.72c-5.68,2.09-12.22,4.31-19.61,6.66-7.39,2.35-15.88,4.38-25.47,6.07-9.59,1.7-20.71,2.55-33.36,2.55-32.97,0-61.17-6.1-84.62-18.31-23.45-12.21-41.42-29.41-53.93-51.61-12.51-22.19-18.76-48.18-18.76-77.95Z"/>
    <path class="cls-2" d="M873.09,363.89c-15.06,0-28.28-2.81-39.64-8.42-11.37-5.61-20.22-13.45-26.54-23.5-6.32-10.05-9.48-21.74-9.48-35.06s3.94-24.74,11.83-34.27c7.89-9.53,18.58-16.97,32.08-22.33,9.23-3.53,19.36-6.27,30.37-8.23,11.01-1.96,22.02-3.33,33.04-4.11,11.01-.78,21.28-1.17,30.8-1.17l10.87,12.34-10.87,19.19c-5.12,0-10.87.33-17.26.98-6.39.66-12.54,1.6-18.44,2.84-5.9,1.24-10.84,2.64-14.81,4.21-5.54,2.35-10.48,5.48-14.81,9.4-4.34,3.92-6.5,9.92-6.5,18.02,0,10.58,3.2,18.38,9.59,23.4,6.39,5.03,14.63,7.54,24.72,7.54,5.25,0,10.48-.65,15.67-1.96,5.19-1.3,9.77-2.84,13.75-4.6,3.98-1.76,6.68-3.43,8.1-4.99l11.3,12.34-7.89,16.84c-6.39,5.22-15.17,10.12-26.32,14.69-11.16,4.57-24.34,6.85-39.54,6.85ZM1000.54,360.75h-61.6v-32.51h-3.41v-117.51c0-11.1-3.2-18.38-9.59-21.84-6.39-3.46-15.56-5.19-27.49-5.19-8.95,0-18.3.72-28.03,2.15-9.73,1.44-18.94,3.33-27.6,5.68-8.67,2.35-15.92,4.9-21.74,7.64l-14.07-37.6c4.83-2.61,12.36-5.68,22.59-9.2,10.23-3.52,21.95-6.62,35.17-9.3,13.22-2.67,26.5-4.02,39.86-4.02,21.88,0,39.89,2.35,54.03,7.05,14.14,4.7,24.65,12.67,31.55,23.89,6.89,11.23,10.34,26.77,10.34,46.61v144.14Z"/>
    <path class="cls-2" d="M1065.13,457.5V142.58h60.74v26.64l4.26,4.7v162.95l-.64,15.28.64,35.25v70.11h-65.01ZM1168.5,363.89c-14.35,0-26.15-1.54-35.38-4.6-9.24-3.07-15.21-5.51-17.9-7.34l14.92-37.99c3.55,3.13,8.49,5.39,14.81,6.76,6.32,1.37,13.54,2.06,21.63,2.06,10.51,0,19.82-2.87,27.92-8.62,8.1-5.74,14.53-14.13,19.29-25.17,4.76-11.03,7.21-24.51,7.35-40.44.14-23.24-3.98-39.69-12.36-49.35-8.39-9.66-19.97-14.49-34.74-14.49-9.24,0-17.73,1.5-25.47,4.5-7.75,3.01-13.89,6.14-18.44,9.4l-7.89-30.36c3.27-3.26,7.85-7.11,13.75-11.55,5.89-4.44,13.6-8.35,23.13-11.75,9.52-3.39,21.38-5.09,35.59-5.09,16.76,0,32.32,3.76,46.68,11.26,14.35,7.51,25.86,18.93,34.53,34.27,8.67,15.34,13,34.76,13,58.26s-4.98,45.41-14.92,63.36c-9.95,17.95-23.98,31.92-42.1,41.91-18.12,9.99-39.25,14.98-63.41,14.98Z"/>
    <path class="cls-2" d="M1440.04,363.89c-36.52,0-64.51-9.99-83.98-29.96-19.47-19.98-29.2-47.59-29.2-82.84,0-21.15,4.44-40.08,13.32-56.8,8.88-16.71,21.77-29.93,38.69-39.66,16.91-9.73,37.58-14.65,62.02-14.79,12.36-.13,24.16,1.31,35.38,4.31,11.22,3.01,21.24,7.87,30.05,14.59,8.81,6.73,15.88,15.6,21.21,26.64,5.33,11.03,8.06,24.51,8.21,40.44,0,7.97-.14,15.34-.43,22.13-.29,6.79-.93,12.6-1.92,17.43h-171.58l4.26-32.32h109.13c.71-10.58.11-19.88-1.81-27.91-1.92-8.03-5.65-14.3-11.19-18.8-5.54-4.51-13.36-6.76-23.45-6.76s-18.37,2.48-25.68,7.44c-7.32,4.96-12.93,13.48-16.84,25.56-3.91,12.08-5.58,28.69-5.01,49.84.57,14.23,3.59,25.63,9.06,34.17,5.47,8.55,12.93,14.69,22.38,18.41,9.45,3.72,20.42,5.58,32.93,5.58,6.82,0,14.28-.52,22.38-1.57,8.1-1.04,15.77-2.45,23.02-4.21,7.25-1.76,12.79-3.56,16.62-5.39l10.87,32.51c-5.26,3.92-12.47,7.54-21.63,10.87-9.17,3.33-19.54,6.01-31.12,8.03-11.58,2.02-23.48,3.03-35.7,3.03Z"/>
    <path class="cls-2" d="M1587.54,360.75V42.5h65.22v318.25h-65.22Z"/>
    <path class="cls-2" d="M1718.4,360.75V42.5h65.22v318.25h-65.22Z"/>
    <path class="cls-2" d="M1910.65,363.89c-15.06,0-28.28-2.81-39.64-8.42-11.37-5.61-20.22-13.45-26.54-23.5-6.32-10.05-9.48-21.74-9.48-35.06s3.94-24.74,11.83-34.27c7.89-9.53,18.58-16.97,32.08-22.33,9.24-3.53,19.36-6.27,30.37-8.23,11.01-1.96,22.02-3.33,33.04-4.11,11.01-.78,21.28-1.17,30.8-1.17l10.87,12.34-10.87,19.19c-5.12,0-10.87.33-17.26.98-6.39.66-12.54,1.6-18.44,2.84-5.9,1.24-10.84,2.64-14.81,4.21-5.54,2.35-10.48,5.48-14.81,9.4-4.34,3.92-6.5,9.92-6.5,18.02,0,10.58,3.2,18.38,9.59,23.4,6.39,5.03,14.63,7.54,24.72,7.54,5.26,0,10.48-.65,15.67-1.96,5.19-1.3,9.77-2.84,13.75-4.6,3.98-1.76,6.68-3.43,8.1-4.99l11.3,12.34-7.89,16.84c-6.39,5.22-15.17,10.12-26.32,14.69-11.16,4.57-24.33,6.85-39.54,6.85ZM2038.11,360.75h-61.6v-32.51h-3.41v-117.51c0-11.1-3.2-18.38-9.59-21.84-6.39-3.46-15.56-5.19-27.49-5.19-8.95,0-18.3.72-28.03,2.15-9.73,1.44-18.94,3.33-27.6,5.68-8.67,2.35-15.92,4.9-21.74,7.64l-14.07-37.6c4.83-2.61,12.36-5.68,22.59-9.2,10.23-3.52,21.95-6.62,35.17-9.3,13.21-2.67,26.5-4.02,39.86-4.02,21.88,0,39.89,2.35,54.03,7.05,14.14,4.7,24.65,12.67,31.55,23.89,6.89,11.23,10.34,26.77,10.34,46.61v144.14Z"/>
  </g>
  <g>
    <path class="cls-2" d="M423.27,115.56v-40.29c0-12.4-10.96-22.45-24.47-22.45H34.36c-13.52,0-24.47,10.05-24.47,22.45v40.29c0,12.4,10.95,22.45,24.47,22.45h180.31l40.03-12.17,30.54-72.87,28.79,73.09,38.07,11.95h46.69c13.51,0,24.47-10.05,24.47-22.45Z"/>
    <path class="cls-2" d="M283.41,249.42h115.39c13.51,0,24.47-10.05,24.47-22.45v-40.29c0-12.4-10.96-22.45-24.47-22.45h-40.78l-44.59,13.55-30.02,71.64Z"/>
    <path class="cls-2" d="M211.62,164.23H34.36c-13.52,0-24.47,10.05-24.47,22.45v40.29c0,12.4,10.95,22.45,24.47,22.45h248.04l-28.32-71.86-42.47-13.33Z"/>
    <polygon class="cls-2" points="282.4 249.42 282.89 250.66 283.41 249.42 282.4 249.42"/>
  </g>
  <path id="path3084" class="cls-2" d="M239.83,152.17l33.04-11.78,11.65-33.09,11.79,33.04,33.08,11.64-33.04,11.79-11.65,33.08-11.78-33.04-33.09-11.65Z"/>
</svg>