<?xml version="1.0" encoding="UTF-8"?>
<svg id="Calque_1" data-name="Calque 1" xmlns="http://www.w3.org/2000/svg" viewBox="0 0 2048 600">
  <defs>
    <style>
      .cls-1 {
        fill: #1d1d1b;
      }

      .cls-2 {
        isolation: isolate;
      }
    </style>
  </defs>
  <g>
    <path class="cls-1" d="M72.18,508.31c.7-35.45,22.47-53.46,49.41-53.46s46.76,21.29,46.13,54.23c-.7,35.38-21.08,53.67-48.22,54.22-29.38.63-47.94-22.82-47.32-54.99ZM151.95,508.31c0-22.26-10.47-41.59-30.85-41.59-17.94,0-33.22,13.47-33.22,42.57,0,22.05,10.89,42.08,32.1,42.08,19.33,0,31.96-15,31.96-43.06Z"/>
    <path class="cls-1" d="M201.64,571.89v25.61h-15.35v-114.87h13.89v8.58c3.56-3.77,9.84-9.7,22.75-9.7,16.75,0,31.4,12.14,31.4,37.96s-15.77,43.83-39.85,43.83c-5.3,0-9.77-.91-13.05-2.02l.21,10.61ZM215.94,552.14c12.77,0,22.47-10.61,22.75-30.57.21-19.12-7.05-27.99-20.03-27.99-7.61,0-13.68,3.84-17.03,6.49v48.5c2.93,2.58,7.54,3.56,14.31,3.56Z"/>
    <path class="cls-1" d="M303.39,481.51c15.84-.28,28.68,10.12,29.31,30.01,0,6,0,10.68-.77,14.24h-49.06c0,.49.07.91.07,1.4.91,18.7,11.31,24.57,24.29,24.57,5.3,0,15.91-2.02,19.82-4.33l2.93,8.79c-5.23,4.26-17.31,7.12-26.87,7.12-22.61,0-35.24-15.21-35.24-41.03,0-23.17,12.21-40.34,35.52-40.76ZM318.32,515.57c.7-11.38-1.81-23.17-15.77-23.17-9.56,0-17.52,6-19.33,23.17h35.1Z"/>
    <path class="cls-1" d="M351.75,482.77h13.68l.07,8.37c5.93-4.05,17.31-9.42,27.71-9.7,17.17-.42,23.66,7.89,23.66,31.2v49.55h-15.35v-49.62c0-13.26-2.44-19.12-14.86-18.42-5.23.21-13.19,2.79-19.54,7.4v60.65h-15.35v-79.42Z"/>
    <path class="cls-1" d="M487.06,544.46c5.23,3.21,15.35,6.49,25.05,6.49,13.33,0,21.15-4.26,21.15-14.73s-8.58-14.87-23.52-22.12c-13.19-6.42-26.59-16.61-26.59-31.96,0-20.38,18.07-27.29,35.31-27.29,12.84,0,21.01,3.14,24.71,5.51l-3.14,12.28c-4.88-2.93-10.33-5.58-21.77-5.58-10.05,0-20.24,3.84-20.24,12.98,0,10.4,5.86,14.1,21.15,21.98,13.68,7.05,29.38,15.77,29.38,32.38,0,19.68-14.59,28.89-35.38,28.89-13.96,0-26.03-3.63-29.8-6.07l3.7-12.77Z"/>
    <path class="cls-1" d="M560.13,520.73c.35-25.54,15.84-39.22,36.29-39.22,25.54,0,35.24,19.89,34.96,42.57-.42,25.54-15.84,39.22-36.36,39.22-25.47,0-35.17-19.89-34.89-42.57ZM615.82,523.38c0-17.03-6.07-30.64-19.75-30.85-13.4-.28-20.38,10.05-20.38,28.4,0,17.03,6.21,31.2,19.75,31.47,13.47.28,20.38-10.61,20.38-29.03Z"/>
    <path class="cls-1" d="M649.95,482.63h15.35v46.41c0,19.68,4.12,21.63,14.59,21.63,6,0,14.24-3.28,17.73-5.58v-62.46h15.35v80.67h-5.93c-4.82,0-7.68-.56-7.68-6.14v-1.95c-6.56,4.05-17.1,8.1-25.75,8.1-20.24,0-23.66-13.75-23.66-34.2v-46.48Z"/>
    <path class="cls-1" d="M736.97,482.77h12.91l.98,8.79c2.93-3.98,12.56-10.12,21.56-10.12,3.77,0,6.35.35,7.75.98v14.38c-1.4-.77-3.91-1.88-10.47-1.88-7.82,0-13.89,3.42-17.38,6.63v60.65h-15.35v-79.42Z"/>
    <path class="cls-1" d="M827.62,481.51c9.98,0,17.03,2.44,19.54,4.12l-2.44,12.14c-4.19-2.93-9.77-4.4-17.87-4.4-10.96,0-22.12,7.75-22.82,27.15-.7,20.24,9.49,31.19,22.4,31.19,7.96,0,15.42-2.51,18.98-4.68l3.14,8.72c-4.89,4.54-14.38,7.54-24.43,7.54-22.4,0-34.96-17.31-34.96-40.06s12.84-41.73,38.45-41.73Z"/>
    <path class="cls-1" d="M894.62,481.51c15.84-.28,28.68,10.12,29.31,30.01,0,6,0,10.68-.77,14.24h-49.06c0,.49.07.91.07,1.4.91,18.7,11.31,24.57,24.29,24.57,5.3,0,15.91-2.02,19.82-4.33l2.93,8.79c-5.23,4.26-17.31,7.12-26.87,7.12-22.61,0-35.24-15.21-35.24-41.03,0-23.17,12.21-40.34,35.52-40.76ZM909.55,515.57c.7-11.38-1.81-23.17-15.77-23.17-9.56,0-17.52,6-19.33,23.17h35.1Z"/>
    <path class="cls-1" d="M996.5,455.97h21.98l19.68,60.65,5.51,22.54,5.23-22.54,18.84-60.65h20.87l12.7,106.22h-15.63l-6.49-66.02-2.02-28.61-7.12,28.61-22.19,67.07h-8.37l-23.17-67.07-7.82-28.54-1.88,28.54-5.79,66.02-15.07.07,10.75-106.29Z"/>
    <path class="cls-1" d="M1124.14,455.9l7.26.07c6.98,0,13.96-1.05,24.43-1.05,23.87,0,34.61,9.98,34.61,25.12,0,9.7-4.54,21.63-16.12,24.71,12.98.56,23.31,12.56,23.31,25.61,0,19.19-9.84,32.8-42.92,32.8-8.03,0-17.87-.63-22.82-.98h-7.75v-106.29ZM1158.97,502.03c9,0,16.4-6.56,16.4-19.75,0-11.17-8.03-16.4-22.4-16.4-2.79,0-11.38.21-13.33.91v34.89c5.58.84,13.68.35,19.33.35ZM1156.53,551.86c15.77,0,25.33-4.82,25.33-19.68,0-13.26-7.75-19.05-24.64-19.05-5.65,0-13.26-.21-17.59.35v36.78c2.44,1.54,11.65,1.61,16.89,1.61Z"/>
    <path class="cls-1" d="M1216.68,544.46c5.23,3.21,15.35,6.49,25.05,6.49,13.33,0,21.15-4.26,21.15-14.73s-8.58-14.87-23.52-22.12c-13.19-6.42-26.59-16.61-26.59-31.96,0-20.38,18.08-27.29,35.31-27.29,12.84,0,21.01,3.14,24.7,5.51l-3.14,12.28c-4.88-2.93-10.33-5.58-21.77-5.58-10.05,0-20.24,3.84-20.24,12.98,0,10.4,5.86,14.1,21.15,21.98,13.68,7.05,29.38,15.77,29.38,32.38,0,19.68-14.59,28.89-35.38,28.89-13.96,0-26.03-3.63-29.8-6.07l3.7-12.77Z"/>
    <path class="cls-1" d="M1296.59,455.97h61.13v12h-45.57v33.5h33.43v12h-33.43v36.5h50.67v12.21h-66.23v-106.22Z"/>
    <path class="cls-1" d="M1426.32,544.46c5.23,3.21,15.35,6.49,25.05,6.49,13.33,0,21.15-4.26,21.15-14.73s-8.58-14.87-23.52-22.12c-13.19-6.42-26.59-16.61-26.59-31.96,0-20.38,18.07-27.29,35.31-27.29,12.84,0,21.01,3.14,24.71,5.51l-3.14,12.28c-4.88-2.93-10.33-5.58-21.77-5.58-10.05,0-20.24,3.84-20.24,12.98,0,10.4,5.86,14.1,21.15,21.98,13.68,7.05,29.38,15.77,29.38,32.38,0,19.68-14.59,28.89-35.38,28.89-13.96,0-26.03-3.63-29.8-6.07l3.7-12.77Z"/>
    <path class="cls-1" d="M1499.38,520.73c.35-25.54,15.84-39.22,36.29-39.22,25.54,0,35.24,19.89,34.96,42.57-.42,25.54-15.84,39.22-36.36,39.22-25.47,0-35.17-19.89-34.89-42.57ZM1555.08,523.38c0-17.03-6.07-30.64-19.75-30.85-13.4-.28-20.38,10.05-20.38,28.4,0,17.03,6.21,31.2,19.75,31.47,13.47.28,20.38-10.61,20.38-29.03Z"/>
    <path class="cls-1" d="M1591.08,446.06h15.35v116.13h-15.35v-116.13Z"/>
    <path class="cls-1" d="M1631.98,482.63h15.35v46.41c0,19.68,4.12,21.63,14.59,21.63,6,0,14.24-3.28,17.73-5.58v-62.46h15.35v80.67h-5.93c-4.81,0-7.68-.56-7.68-6.14v-1.95c-6.56,4.05-17.1,8.1-25.75,8.1-20.24,0-23.66-13.75-23.66-34.2v-46.48Z"/>
    <path class="cls-1" d="M1723.19,494.21h-10.33v-8.31c6.98-2.02,10.12-2.3,11.79-6.84,1.26-3.21,2.65-8.24,4.61-14.59h9.21v18.14h22.47v11.59h-22.47v40.27c0,15.28,1.19,16.54,8.79,16.54,4.12,0,10.96-1.61,13.61-3l2.65,8.79c-4.33,3.21-13.96,6.49-21.98,6.49-10.26,0-18.35-3.7-18.35-20.17v-48.92Z"/>
    <path class="cls-1" d="M1777.41,458.76c0-6.07,5.79-10.89,11.3-10.89,6.63,0,9.84,4.19,9.84,9.42,0,6.42-5.51,10.89-11.31,10.89-5.23,0-9.84-3.63-9.84-9.42ZM1780.07,482.77h15.35v79.42h-15.35v-79.42Z"/>
    <path class="cls-1" d="M1815.59,520.73c.35-25.54,15.84-39.22,36.29-39.22,25.54,0,35.24,19.89,34.96,42.57-.42,25.54-15.84,39.22-36.36,39.22-25.47,0-35.17-19.89-34.89-42.57ZM1871.28,523.38c0-17.03-6.07-30.64-19.75-30.85-13.4-.28-20.38,10.05-20.38,28.4,0,17.03,6.21,31.2,19.75,31.47,13.47.28,20.38-10.61,20.38-29.03Z"/>
    <path class="cls-1" d="M1905.82,482.77h13.68l.07,8.37c5.93-4.05,17.31-9.42,27.71-9.7,17.17-.42,23.66,7.89,23.66,31.2v49.55h-15.35v-49.62c0-13.26-2.44-19.12-14.86-18.42-5.23.21-13.19,2.79-19.54,7.4v60.65h-15.35v-79.42Z"/>
  </g>
  <g>
    <path class="cls-1" d="M65.21,294.57c0,11.6,10.25,21.01,22.9,21.01h341.04c12.65,0,22.9-9.41,22.9-21.01v-37.7c0-11.6-10.25-21.01-22.9-21.01H88.11c-12.65,0-22.9,9.4-22.9,21.01v37.7Z"/>
    <g class="cls-2">
      <g class="cls-2">
        <path class="cls-1" d="M693.32,40.23c43.05,0,61.94,7.34,80.64,10.56l-8.96,50.11c-10.52-5.19-27.66-15.57-67.78-15.57-48.11,0-85.31,33.83-85.31,91.1s33.7,97.9,89.99,97.9c26.88,0,58.43-10.2,68.76-17.18l.19,46.89c-17.14,6.26-38.76,14.32-74.8,14.32-91.35,0-148.03-55.84-148.03-138.35,0-90.2,64.47-139.78,145.31-139.78Z"/>
        <path class="cls-1" d="M840.19,200.96c24.54-10.02,60.97-11.81,89.02-11.81v-12.89c0-21.84-6.43-26.13-44.02-26.13-11.88,0-42.27,6.62-61.16,14.5l-13.44-35.8c14.22-7.88,54.15-21.3,89.21-21.3,61.75,0,90.18,15.39,90.18,74.63v136.2h-35.45c-14.8,0-22.79-.89-22.79-18.61v-1.43c-11.88,10.02-31.55,20.05-57.85,20.05-43.63,0-72.46-27.92-72.46-66.4,0-24.7,14.8-41.16,38.76-51.01ZM894.72,280.6c13.64,0,30.39-6.44,34.48-11.28v-48.68c-14.61,0-36.62,3.4-45.77,7.34-9.15,3.22-19.28,8.41-19.28,23.62,0,19.87,13.25,28.99,30.58,28.99Z"/>
        <path class="cls-1" d="M1113.27,340.38v65.68h-60.77V111.47h56.68v20.76c10.13-9.31,29.02-23.62,64.67-23.62,47.14,0,88.43,31.14,88.43,97.36s-45.38,112.4-112.97,112.4c-15.39,0-27.85-2.68-36.81-5.73l.78,27.74ZM1147.56,279.17c28.83,0,50.64-24.7,51.03-68.73.39-46.71-17.14-60.14-43.44-60.14-16.95,0-32.72,5.91-41.88,12.71v107.92c7.99,6.62,20.84,8.23,34.28,8.23Z"/>
        <path class="cls-1" d="M1405.45,108.6c45.97-.36,87.46,20.58,88.24,80,0,15.39-.58,29.17-2.14,38.3h-131.48c2.53,34.72,25.13,49.93,59.41,49.93,15.78,0,45.38-4.65,57.07-10.56l9.93,31.68c-14.61,10.92-47.92,20.4-82.39,20.4-67.78,0-104.79-39.38-104.79-105.6,0-59.42,37.98-103.81,106.16-104.16ZM1437.2,195.95c1.95-29.89-6.43-47.61-33.7-47.61-22.4,0-37.98,11.45-42.27,47.61h75.97Z"/>
        <path class="cls-1" d="M1547.65,18.04h60.77v297.46h-60.77V18.04Z"/>
        <path class="cls-1" d="M1678.54,18.04h60.77v297.46h-60.77V18.04Z"/>
        <path class="cls-1" d="M1833.01,200.96c24.54-10.02,60.97-11.81,89.02-11.81v-12.89c0-21.84-6.43-26.13-44.02-26.13-11.88,0-42.27,6.62-61.16,14.5l-13.44-35.8c14.22-7.88,54.15-21.3,89.21-21.3,61.75,0,90.18,15.39,90.18,74.63v136.2h-35.45c-14.8,0-22.79-.89-22.79-18.61v-1.43c-11.88,10.02-31.55,20.05-57.85,20.05-43.63,0-72.46-27.92-72.46-66.4,0-24.7,14.8-41.16,38.76-51.01ZM1887.55,280.6c13.64,0,30.39-6.44,34.48-11.28v-48.68c-14.61,0-36.62,3.4-45.77,7.34-9.15,3.22-19.28,8.41-19.28,23.62,0,19.87,13.25,28.99,30.58,28.99Z"/>
      </g>
    </g>
    <g>
      <path class="cls-1" d="M452.05,86.05v-37.7c0-11.6-10.25-21.01-22.9-21.01H88.11c-12.65,0-22.9,9.4-22.9,21.01v37.7c0,11.6,10.25,21.01,22.9,21.01h168.74l37.46-11.39,28.58-68.19,26.95,68.4,35.62,11.18h43.69c12.65,0,22.9-9.41,22.9-21.01Z"/>
      <path class="cls-1" d="M321.17,211.32h107.98c12.65,0,22.9-9.41,22.9-21.01v-37.7c0-11.6-10.25-21.01-22.9-21.01h-38.16l-41.73,12.68-28.09,67.04Z"/>
      <path class="cls-1" d="M253.98,131.6H88.11c-12.65,0-22.9,9.4-22.9,21.01v37.7c0,11.61,10.25,21.01,22.9,21.01h232.12l-26.5-67.25-39.75-12.47Z"/>
      <polygon class="cls-1" points="320.23 211.32 320.68 212.47 321.17 211.32 320.23 211.32"/>
    </g>
    <path id="path3084" class="cls-1" d="M280.38,120.31l30.92-11.02,10.9-30.96,11.03,30.92,30.96,10.9-30.92,11.03-10.9,30.96-11.03-30.92-30.96-10.9Z"/>
  </g>
</svg>