<?xml version="1.0" encoding="UTF-8"?><svg id="Vertical" xmlns="http://www.w3.org/2000/svg" viewBox="0 0 104.84 115.91"><defs><style>.cls-1{fill:#7f7f7f;}</style></defs><g id="vertical-neutral"><g id="vertical-neutral-2"><path class="cls-1" d="M52.47,54.1c-1.67,0-3.24-.41-4.62-1.12-.49-.25-1.08-.15-1.47.24l-10.97,10.97c-.55.55-.48,1.46.14,1.94,4.7,3.59,10.56,5.73,16.94,5.73,2.48,0,4.88-.33,7.16-.93.76-.2,1.17-1.01.87-1.74l-5.94-14.34c-.21-.52-.74-.83-1.3-.78-.26.02-.52.03-.79.03"/><path class="cls-1" d="M58.69,53.13l5.94,14.34c.3.72,1.17,1.01,1.84.61,7.3-4.24,12.49-11.7,13.65-20.43.1-.77-.49-1.47-1.27-1.47h-15.52c-.55,0-1.04.34-1.21.86-.59,1.82-1.67,3.42-3.1,4.63-.42.35-.55.94-.34,1.45"/><path class="cls-1" d="M50.23,33.09v-15.52c0-.78-.69-1.37-1.47-1.27-8.73,1.16-16.18,6.35-20.43,13.65-.39.67-.11,1.54.61,1.84l14.34,5.94c.5.21,1.09.08,1.45-.34,1.21-1.43,2.81-2.51,4.63-3.1.52-.17.86-.66.86-1.21"/><path class="cls-1" d="M42.32,43.95c0-.27.01-.53.03-.79.05-.56-.26-1.09-.78-1.3l-14.34-5.94c-.72-.3-1.54.11-1.74.87-.61,2.29-.93,4.68-.93,7.16,0,6.37,2.14,12.24,5.73,16.94.47.62,1.38.69,1.94.14l10.97-10.97c.39-.39.49-.98.24-1.47-.71-1.39-1.12-2.96-1.12-4.62"/><path class="cls-1" d="M79.01,40.25h-21.57c-.7,0-1.26-.57-1.26-1.26v-21.57c0-.7.57-1.26,1.26-1.26h21.57c.7,0,1.26.57,1.26,1.26v21.57c0,.7-.57,1.26-1.26,1.26"/><path class="cls-1" d="M26.39,83.91c-5.01,0-8.79,3.44-8.79,8s3.78,8,8.79,8,8.81-3.44,8.81-8-3.79-8-8.81-8M26.39,96.64c-3.1,0-5.19-1.9-5.19-4.73s2.08-4.73,5.19-4.73,5.21,1.9,5.21,4.73-2.09,4.73-5.21,4.73"/><path class="cls-1" d="M48.61,91.38l-.37-.1.35-.15c.99-.32,2.06-1.7,2.06-3.12,0-2.34-2.24-4.1-5.21-4.1h-6.78c-.46,0-.83.37-.83.83v14.35c0,.46.37.83.83.83h6.72c3.88,0,6.2-1.77,6.2-4.74,0-1.54-1.39-3.4-2.98-3.79M41.59,86.69h2.93c1.33,0,2.33.79,2.33,1.84s-1,1.84-2.33,1.84h-2.93v-3.67ZM44.94,97.13h-3.35v-4.29h3.35c1.6,0,2.67.86,2.67,2.14s-1.07,2.14-2.67,2.14"/><path class="cls-1" d="M55.04,99.91h11.96v-2.33c0-.46-.37-.83-.83-.83h-8.2v-3.48h6.94v-2.92h-6.94v-3.27h8.04c.46,0,.83-.37.83-.83v-2.33h-11.8c-.46,0-.83.37-.83.83v14.35c0,.46.37.83.83.83"/><path class="cls-1" d="M78.42,83.91c-5.01,0-8.79,3.44-8.79,8s3.78,8,8.79,8,8.81-3.44,8.81-8-3.79-8-8.81-8M78.42,96.65c-3.11,0-5.2-1.91-5.2-4.74s2.09-4.74,5.2-4.74,5.23,1.91,5.23,4.74-2.1,4.74-5.23,4.74"/></g></g></svg>