<?xml version="1.0" encoding="UTF-8"?><svg id="Horizontal" xmlns="http://www.w3.org/2000/svg" viewBox="0 0 257.21 87.71"><defs><style>.cls-1{fill:#badfe1;}.cls-2{fill:#4ebcc2;}.cls-3{fill:#fbb800;}.cls-4{fill:#078;}.cls-5{fill:#009db5;}</style></defs><g id="full-color"><g id="Layer_2"><path class="cls-2" d="M45.5,53.95c-1.67,0-3.24-.41-4.62-1.12-.49-.25-1.08-.15-1.47.24l-10.97,10.97c-.55.55-.48,1.46.14,1.94,4.7,3.59,10.56,5.73,16.94,5.73,2.48,0,4.88-.33,7.16-.93.76-.2,1.17-1.01.87-1.74l-5.94-14.34c-.21-.52-.74-.83-1.3-.78-.26.02-.52.03-.79.03"/><path class="cls-1" d="M51.73,52.98l5.94,14.34c.3.72,1.17,1.01,1.84.61,7.3-4.24,12.49-11.7,13.65-20.43.1-.77-.49-1.47-1.27-1.47h-15.52c-.55,0-1.04.34-1.21.86-.59,1.82-1.67,3.42-3.1,4.63-.42.35-.55.94-.34,1.45"/><path class="cls-4" d="M43.27,32.94v-15.52c0-.78-.69-1.37-1.47-1.27-8.73,1.16-16.18,6.35-20.43,13.65-.39.67-.11,1.54.61,1.84l14.34,5.94c.5.21,1.09.08,1.45-.34,1.21-1.43,2.81-2.51,4.63-3.1.52-.17.86-.66.86-1.21"/><path class="cls-5" d="M35.36,43.81c0-.27.01-.53.03-.79.05-.56-.26-1.09-.78-1.3l-14.34-5.94c-.72-.3-1.54.11-1.74.87-.61,2.29-.93,4.68-.93,7.16,0,6.37,2.14,12.24,5.73,16.94.47.62,1.38.69,1.94.14l10.97-10.97c.39-.39.49-.98.24-1.47-.71-1.39-1.12-2.96-1.12-4.62"/><path class="cls-3" d="M72.05,40.1h-21.57c-.7,0-1.26-.57-1.26-1.26v-21.57c0-.7.57-1.26,1.26-1.26h21.57c.7,0,1.26.57,1.26,1.26v21.57c0,.7-.57,1.26-1.26,1.26"/><path class="cls-4" d="M104.82,26.13c-11.1,0-19.46,7.62-19.46,17.72s8.37,17.72,19.46,17.72,19.52-7.62,19.52-17.72-8.39-17.72-19.52-17.72M104.82,54.33c-6.87,0-11.49-4.21-11.49-10.47s4.62-10.47,11.49-10.47,11.55,4.21,11.55,10.47-4.64,10.47-11.55,10.47"/><path class="cls-4" d="M154.05,42.68l-.81-.22.76-.34c2.2-.71,4.57-3.76,4.57-6.92,0-5.18-4.96-9.08-11.54-9.08h-15.01c-1.01,0-1.83.82-1.83,1.83v31.78c0,1.01.82,1.83,1.83,1.83h14.89c8.6,0,13.73-3.92,13.73-10.49,0-3.42-3.08-7.53-6.59-8.4M138.51,32.3h6.49c2.95,0,5.17,1.75,5.17,4.07s-2.22,4.07-5.17,4.07h-6.49v-8.14ZM145.93,55.41h-7.41v-9.5h7.41c3.54,0,5.92,1.91,5.92,4.75s-2.38,4.75-5.92,4.75"/><path class="cls-4" d="M168.3,61.58h26.49v-5.17c0-1.01-.82-1.83-1.83-1.83h-18.16v-7.72h15.38v-6.48h-15.38v-7.25h17.82c1.01,0,1.83-.82,1.83-1.83v-5.17h-26.15c-1.01,0-1.83.82-1.83,1.83v31.78c0,1.01.82,1.83,1.83,1.83"/><path class="cls-4" d="M220.09,26.13c-11.1,0-19.47,7.62-19.47,17.72s8.37,17.72,19.47,17.72,19.52-7.62,19.52-17.72-8.39-17.72-19.52-17.72M220.09,54.36c-6.89,0-11.53-4.22-11.53-10.5s4.63-10.5,11.53-10.5,11.58,4.22,11.58,10.5-4.65,10.5-11.58,10.5"/></g></g></svg>