<?xml version="1.0" encoding="UTF-8"?>
<svg id="Layer_1" data-name="Layer 1" xmlns="http://www.w3.org/2000/svg" viewBox="0 0 2048 500">
  <defs>
    <style>
      .cls-1 {
        fill: #fbbf52;
      }

      .cls-2 {
        fill: #8c3064;
      }

      .cls-3 {
        fill: #292253;
      }
    </style>
  </defs>
  <g>
    <path class="cls-3" d="M297.44,275.87v215.25l168.83-91.31c22.98-12.41,37.23-36.46,37.23-62.51v-171.89l-206.06,110.46Z"/>
    <path class="cls-1" d="M238.92,300.69v161.32l-140.33-75.68c-18.23-9.8-29.41-28.8-29.41-49.48v-141.25l153.82,83.04,19.3-10.11L51.09,165.11v171.74c0,27.27,14.86,52.4,38.91,65.42l166.99,90.24v-201.31l-18.08,9.5Z"/>
    <path class="cls-2" d="M439.61,133.7l-162.39,87.17L89.54,120.22,249.64,32.89c17.16-9.35,37.69-9.35,54.85,0l135.43,73.84h37.84L313.37,16.81c-22.67-12.41-49.64-12.41-72.31,0L51.55,120.22l225.67,121.03,200.69-107.7-38.3.15Z"/>
  </g>
  <path class="cls-1" d="M1498.39,95.4c-1.69,0-3.37.77-4.6,1.99s-1.99,2.91-1.99,4.6v86.41c0,3.68,2.91,6.59,6.59,6.59h22.06c1.69,0,3.37-.77,4.6-1.99s1.99-2.91,1.99-4.6v-86.41c0-3.68-2.91-6.59-6.59-6.59h-22.06Z"/>
  <path class="cls-1" d="M1509.88,404.41c-22.83,0-44.43-3.83-63.89-11.64-19.61-7.66-36.77-18.69-51.17-32.63-14.25-13.94-25.58-30.33-33.7-49.02-7.97-18.69-12.1-39.22-12.1-61.28s4.14-42.59,12.1-61.28c7.97-18.69,19.3-35.08,33.7-49.02,14.4-13.94,31.41-24.82,50.86-32.63,4.44-1.84,9.19-2.91,13.79-4.14l8.27-2.14v25.58c0,10.88-5.82,21.14-15.17,26.81-.15.15-14.09,8.58-22.21,17.16l-.61.61-2.3-2.3,2.3,2.3c-10.11,9.96-17.92,21.75-23.59,35.08-5.52,13.33-8.43,28.04-8.43,43.82s2.76,30.64,8.43,43.82c5.52,13.33,13.48,25.13,23.59,35.08,10.11,9.96,22.06,17.77,35.39,23.13,13.48,5.52,28.5,8.27,44.58,8.27s30.64-2.76,44.12-8.27c13.48-5.36,25.28-13.18,35.24-23.13,9.96-9.96,17.77-21.75,23.29-35.08,5.52-13.33,8.43-28.04,8.43-43.82s-2.76-30.64-8.43-43.82c-5.52-13.33-13.48-25.13-23.29-35.08-9.96-9.96-21.75-17.62-35.24-23.13-.31,0-.61-.15-.92-.31l-2.14-.77v-45.81l8.43,2.14c4.6,1.07,9.35,2.3,13.94,4.14,19.3,7.66,36.46,18.54,50.86,32.33,14.4,13.94,25.74,30.33,33.7,49.02,7.81,18.69,11.8,39.37,11.8,61.59s-3.98,43.05-11.8,61.59c-7.81,18.54-19.15,35.08-33.7,49.02-14.4,13.94-31.56,24.82-50.86,32.33-19.15,7.66-40.45,11.49-63.27,11.49Z"/>
  <g>
    <path class="cls-3" d="M910.4,488.67c-.61,0-1.23,0-1.99-.15-.31,0-.61-.15-1.07-.15l-3.22-.15v-41.36l3.37.15c.61,0,1.07.15,1.69.15.31,0,.77.15,1.07.15,9.04,0,16.55-2.3,22.37-6.89,5.97-4.75,11.8-13.33,17.16-25.74l51.32-111.99,47.49-110.15c4.9-11.34,16.09-18.69,28.5-18.69h26.5l-1.99,4.6-108.47,246.04c-6.59,15.93-14.09,28.8-22.37,37.99-8.27,9.35-17.62,16.09-27.58,20.07-9.8,4.14-20.99,6.13-32.79,6.13Z"/>
    <path class="cls-3" d="M945.48,375.3l-89.01-201.31h49.48l64.34,147.53-24.82,53.77Z"/>
  </g>
  <g>
    <path class="cls-3" d="M736.21,404.41c-22.83,0-44.89-3.52-65.57-10.57-20.84-7.05-37.69-16.24-49.79-27.58l-1.84-1.69,18.54-39.07,3.22,2.91c10.88,9.5,24.97,17.62,41.98,23.9,17.01,6.28,34.93,9.5,53.31,9.5,16.7,0,30.33-1.99,40.6-5.67,10.11-3.68,17.47-8.73,22.06-15.17,4.75-6.28,6.89-13.33,6.89-21.45,0-9.19-2.91-16.55-8.89-22.06-6.28-5.82-14.55-10.72-24.67-14.25-10.42-3.83-22.06-7.05-34.47-9.8-12.41-2.76-25.43-6.13-38.45-9.96-12.87-3.83-24.97-8.73-35.7-14.86-11.03-6.13-20.07-14.55-26.66-24.97-6.28-9.8-9.65-22.52-9.96-38.15v-3.37h48.26l.31,3.06c.77,8.27,3.37,14.55,8.12,19,6.28,5.82,14.55,10.57,24.51,14.09,10.26,3.52,21.91,6.89,34.47,9.8,12.26,2.91,25.13,6.13,38.3,9.96,13.02,3.68,25.13,8.73,35.7,14.71,10.88,6.13,19.92,14.4,26.66,24.67h0c6.74,10.42,10.26,23.75,10.26,39.83s-4.29,30.03-12.72,43.36c-8.43,13.33-21.6,24.05-39.22,32.02-17.01,7.81-39.07,11.8-65.26,11.8Z"/>
    <path class="cls-3" d="M679.37,161.89l-2.14-.15h-48.72l1.38-4.29c1.99-6.59,4.75-12.56,8.12-17.92,8.73-13.48,21.45-24.05,38.61-32.17,17.16-7.97,39.07-11.95,65.26-11.95,11.8,0,23.59,1.07,35.08,3.22,19.76,3.52,37.99,11.18,53.93,22.67l2.6,1.84-8.89,13.48c-7.81,11.49-23.13,15.78-36.46,9.96-6.59-2.76-13.33-4.75-20.38-6.13-9.96-1.84-18.23-2.6-25.74-2.6-16.24,0-29.11,1.99-39.68,6.13-9.65,3.83-17.31,9.35-22.06,15.78l-.92,2.14Z"/>
  </g>
  <g>
    <path class="cls-3" d="M1197.96,404.41c-18.84,0-36.92-2.6-53.93-7.81-17.01-5.21-30.64-11.64-40.6-19.15l-2.14-1.69,19.92-37.84,3.06,2.14c9.19,6.28,20.84,11.64,34.62,16.09,13.64,4.44,27.73,6.59,41.98,6.59,18.08,0,31.25-2.45,38.91-7.51,7.35-4.75,10.88-11.18,10.88-19.61,0-5.97-2.14-10.57-6.28-13.79-4.75-3.68-11.03-6.43-18.84-8.27-8.12-1.99-17.31-3.68-27.42-5.21-9.96-1.53-20.22-3.52-30.64-5.97-10.42-2.45-20.07-5.97-28.65-10.42-8.89-4.6-16.09-11.03-21.45-19.3-3.37-5.21-5.52-11.95-6.74-21.6l-.46-3.68h48.26l1.69,2.45c.77,1.23,1.53,2.45,2.6,3.22,4.9,3.83,11.34,6.74,19.15,8.89,8.27,2.14,17.47,4.14,27.27,5.67,9.96,1.53,20.22,3.52,30.64,5.97,10.42,2.45,19.92,5.82,28.34,10.26,8.73,4.44,15.93,10.72,21.45,18.84s8.43,19,8.43,32.33c0,14.25-4.14,26.66-12.56,37.07-8.27,10.26-19.92,18.38-34.78,24.05-14.71,5.52-32.48,8.27-52.7,8.27Z"/>
    <path class="cls-3" d="M1159.35,227.15h-48.11l.92-4.14c1.99-8.12,4.9-14.86,9.04-20.53,8.12-10.72,19.46-19,33.86-24.67,14.86-5.52,31.87-8.43,50.86-8.43,9.96,0,20.07.77,30.33,2.45,19.3,2.76,36.46,9.19,52.55,19.76l2.6,1.84-7.97,13.02c-7.2,11.49-21.45,16.09-35.08,11.18-5.67-1.99-13.02-4.44-19.92-5.21-7.05-1.23-14.09-1.69-22.98-1.69-17.01,0-29.57,2.76-37.69,8.12-2.91,1.84-5.21,4.14-7.35,7.05l-1.07,1.23Z"/>
  </g>
  <path class="cls-1" d="M1996.76,404.41h-22.37c-11.49,0-22.21-5.06-29.41-13.94l-166.22-203.91v217.85h-49.94V97.54h24.21c10.42,0,20.07,4.6,26.5,12.56l167.3,205.29V97.54h50.1v306.86h-.15Z"/>
</svg>