<?xml version="1.0" encoding="UTF-8" standalone="no"?>
<svg
   id="White"
   viewBox="0 0 494 230.61"
   version="1.1"
   sodipodi:docname="sirius-web-logo-white2.svg"
   inkscape:version="1.4.1 (unknown)"
   xmlns:inkscape="http://www.inkscape.org/namespaces/inkscape"
   xmlns:sodipodi="http://sodipodi.sourceforge.net/DTD/sodipodi-0.dtd"
   xmlns="http://www.w3.org/2000/svg"
   xmlns:svg="http://www.w3.org/2000/svg">
  <sodipodi:namedview
     id="namedview9"
     pagecolor="#ffffff"
     bordercolor="#666666"
     borderopacity="1.0"
     inkscape:showpageshadow="2"
     inkscape:pageopacity="0.0"
     inkscape:pagecheckerboard="0"
     inkscape:deskcolor="#d1d1d1"
     inkscape:zoom="1.1575075"
     inkscape:cx="354.64132"
     inkscape:cy="87.688414"
     inkscape:window-width="1920"
     inkscape:window-height="1006"
     inkscape:window-x="0"
     inkscape:window-y="0"
     inkscape:window-maximized="1"
     inkscape:current-layer="White" />
  <defs
     id="defs1">
    <style
       id="style1">.cls-1{isolation:isolate;}.cls-2{fill:#fff;}</style>
  </defs>
  <g
     id="g3070"
     style="fill:#ededed;fill-opacity:1">
    <g
       id="g3818"
       style="fill:#ededed;fill-opacity:1">
      <path
         id="path3072"
         class="cls-2"
         d="M66.59,108.8c23.22,6.22,40.73,23.08,48.79,43.9-11.63-15.26-29.67-27.57-51.59-33.44-21.97-5.89-43.75-4.23-61.47,3.21,17.4-14.05,41.02-19.9,64.27-13.67Z"
         style="fill:#ededed;fill-opacity:1" />
      <path
         id="path3074"
         class="cls-2"
         d="M46.29,73.64c6.22-23.22.38-46.82-13.63-64.2,7.4,17.7,9.04,39.48,3.17,61.4-5.89,21.97-18.21,40.01-33.51,51.63,20.86-8.04,37.74-25.58,43.97-48.83Z"
         style="fill:#ededed;fill-opacity:1" />
    </g>
    <path
       id="path3076"
       class="cls-2"
       d="M49.69,84.6l13-5,4.3-13.25,5,13,13.25,4.3-13,5-4.3,13.25-5-13-13.25-4.3Z"
       style="fill:#ededed;fill-opacity:1" />
  </g>
  <g
     id="g3078"
     style="fill:#ededed;fill-opacity:1">
    <path
       id="path3080"
       class="cls-2"
       d="M90.81,44.99c-23.22-6.22-40.73-23.08-48.79-43.9,11.63,15.26,29.67,27.57,51.59,33.44,21.97,5.89,43.75,4.23,61.47-3.21-17.4,14.05-41.02,19.9-64.27,13.67h0Z"
       style="fill:#ededed;fill-opacity:1" />
    <path
       id="path3082"
       class="cls-2"
       d="M111.11,80.15c-6.22,23.22-.38,46.82,13.63,64.2-7.4-17.7-9.04-39.48-3.17-61.4,5.89-21.97,18.21-40.01,33.51-51.63-20.86,8.04-37.74,25.58-43.97,48.83h0Z"
       style="fill:#ededed;fill-opacity:1" />
    <path
       id="path3084"
       class="cls-2"
       d="M88.26,66.14l7.93-3.05,2.63-8.09,3.05,7.93,8.09,2.63-7.93,3.05-2.63,8.09-3.05-7.93-8.09-2.63Z"
       style="fill:#ededed;fill-opacity:1" />
  </g>
  <g
     class="cls-1"
     id="g6"
     style="fill:#ededed;fill-opacity:1">
    <path
       class="cls-2"
       d="M194.58,137.36c-4.15,0-8.09-.3-11.8-.91-3.71-.61-6.92-1.33-9.62-2.18-2.7-.85-4.62-1.61-5.75-2.3l2.84-15c1.49.89,3.46,1.77,5.9,2.63,2.44.87,5.13,1.59,8.08,2.18,2.94.58,5.91.88,8.89.88,4.8,0,8.37-.75,10.71-2.24,2.34-1.49,3.51-3.89,3.51-7.2,0-2.34-.65-4.3-1.94-5.9-1.29-1.59-3.32-3.16-6.08-4.69-2.76-1.53-6.34-3.35-10.74-5.45-3.75-1.81-7.28-3.97-10.59-6.47-3.31-2.5-5.99-5.48-8.05-8.95-2.06-3.47-3.09-7.52-3.09-12.16,0-4.19.82-7.81,2.45-10.86,1.63-3.04,3.88-5.55,6.75-7.5,2.86-1.96,6.18-3.4,9.95-4.33,3.77-.93,7.81-1.39,12.13-1.39,6.21,0,11.31.58,15.31,1.75,3.99,1.17,6.78,2.26,8.35,3.27l-3.21,14.4c-1.9-1.37-4.52-2.61-7.86-3.72-3.35-1.11-7.18-1.66-11.5-1.66-2.86,0-5.35.34-7.47,1.03-2.12.69-3.76,1.68-4.93,3-1.17,1.31-1.75,2.91-1.75,4.81,0,2.26.55,4.18,1.66,5.78,1.11,1.59,2.87,3.13,5.29,4.6,2.42,1.47,5.57,3.16,9.44,5.05,3.51,1.65,6.75,3.38,9.74,5.17,2.98,1.79,5.61,3.76,7.87,5.9,2.26,2.14,4.01,4.58,5.26,7.32,1.25,2.74,1.88,5.89,1.88,9.44,0,5.41-1.27,10.03-3.81,13.88s-6.18,6.79-10.92,8.8c-4.74,2.02-10.38,3.02-16.91,3.02Z"
       id="path1"
       style="fill:#ededed;fill-opacity:1" />
    <path
       class="cls-2"
       d="M248.98,59.51c-2.98,0-5.49-.92-7.54-2.78-2.05-1.85-3.08-4.26-3.08-7.24,0-2.01.55-3.85,1.66-5.52,1.11-1.67,2.55-3.01,4.34-4.01,1.79-1.01,3.71-1.51,5.76-1.51,3.3,0,5.88.94,7.75,2.81,1.87,1.87,2.81,4.28,2.81,7.21s-1.16,5.66-3.47,7.81c-2.31,2.15-5.06,3.23-8.24,3.23ZM240.71,136.39v-67.16h18.4v67.16h-18.4Z"
       id="path2"
       style="fill:#ededed;fill-opacity:1" />
    <path
       class="cls-2"
       d="M277.52,136.39v-67.16h15.93l1.03,10.5,1.45,3.2v53.46h-18.4ZM294.84,92.58l-.85-12.91c.72-1.93,2.05-3.77,3.98-5.52s4.22-3.18,6.88-4.28c2.65-1.11,5.45-1.66,8.39-1.66,1.21,0,2.32.06,3.35.18,1.03.12,1.78.32,2.26.6v17.92c-.56-.36-1.43-.72-2.59-1.09-1.17-.36-2.94-.54-5.31-.54-2.9,0-5.39.41-7.48,1.24-2.09.82-3.85,1.81-5.28,2.96-1.43,1.15-2.54,2.18-3.35,3.11Z"
       id="path3"
       style="fill:#ededed;fill-opacity:1" />
    <path
       class="cls-2"
       d="M339.86,59.51c-2.98,0-5.49-.92-7.54-2.78-2.05-1.85-3.08-4.26-3.08-7.24,0-2.01.55-3.85,1.66-5.52,1.11-1.67,2.55-3.01,4.34-4.01,1.79-1.01,3.71-1.51,5.76-1.51,3.3,0,5.88.94,7.75,2.81,1.87,1.87,2.81,4.28,2.81,7.21s-1.16,5.66-3.47,7.81c-2.31,2.15-5.06,3.23-8.24,3.23ZM331.59,136.39v-67.16h18.4v67.16h-18.4Z"
       id="path4"
       style="fill:#ededed;fill-opacity:1" />
    <path
       class="cls-2"
       d="M389.46,137.36c-4.67,0-8.44-.69-11.31-2.08-2.88-1.39-5.06-3.37-6.55-5.94-1.49-2.57-2.5-5.61-3.02-9.11-.52-3.5-.78-7.36-.78-11.59v-39.46h18.34v39.71c0,4.22.36,7.38,1.09,9.47.72,2.09,1.84,3.48,3.35,4.16,1.51.68,3.45,1.03,5.82,1.03,1.45,0,2.94-.2,4.47-.6,1.53-.4,2.94-.89,4.22-1.48,1.29-.58,2.27-1.14,2.96-1.66v-50.63h18.41v68.19h-11.71c-1.57,0-2.79-.24-3.65-.72-.87-.48-1.3-1.61-1.3-3.38v-4.47l.36,1.75c-1.65,1.29-3.65,2.44-6,3.47-2.35,1.03-4.82,1.84-7.39,2.44-2.58.6-5.01.91-7.3.91Z"
       id="path5"
       style="fill:#ededed;fill-opacity:1" />
    <path
       class="cls-2"
       d="M441.6,132.11l2.05-12.97c.64.52,1.95,1.21,3.92,2.05,1.97.84,4.32,1.62,7.06,2.32,2.74.71,5.55,1.06,8.45,1.06,3.66.04,6.36-.45,8.09-1.48,1.73-1.03,2.59-2.56,2.59-4.62,0-1.41-.57-2.63-1.72-3.68-1.15-1.04-2.71-2.02-4.68-2.93-1.97-.91-4.16-1.84-6.58-2.81-4.35-1.73-7.94-3.62-10.77-5.67-2.84-2.05-4.95-4.4-6.34-7.03-1.39-2.63-2.06-5.72-2.02-9.26.04-4.18,1.26-7.66,3.65-10.44,2.39-2.78,5.59-4.86,9.59-6.25,4-1.39,8.44-2.08,13.31-2.08s9.16.45,12.64,1.36c3.48.91,5.86,1.74,7.15,2.5l-1.99,13.21c-.76-.64-1.97-1.33-3.62-2.05-1.65-.72-3.51-1.32-5.58-1.78s-4.17-.69-6.31-.69c-3.9,0-6.75.47-8.54,1.42-1.79.95-2.68,2.3-2.68,4.07-.04,2.29.85,3.99,2.68,5.1,1.83,1.11,4.38,2.34,7.63,3.71,4.83,1.97,8.88,3.93,12.16,5.88,3.28,1.95,5.75,4.18,7.42,6.7,1.67,2.51,2.5,5.58,2.5,9.2,0,6.68-2.39,11.75-7.18,15.21-4.79,3.46-11.25,5.19-19.37,5.19-3.42,0-6.71-.27-9.87-.82-3.16-.54-5.93-1.22-8.33-2.02-2.39-.8-4.17-1.61-5.34-2.41Z"
       id="path6"
       style="fill:#ededed;fill-opacity:1" />
  </g>
  <path
     class="cls-2"
     d="M294.77,159.59l-13.13,69.93h196.91l13.13-69.93h-196.91ZM358.27,217.75h-11.12l-5.77-23.28-1.44-9.35-1.29,9.35-5.71,23.28h-10.94l-11.85-44.88h11.31l4.74,24.9,1.41,10.57,1.63-10.57,5.96-24.9h10.27l6.14,24.9,1.69,10.17,1.35-10.17,4.68-24.9h10.88l-11.91,44.88ZM411.1,217.45h-30.33v-44.58h28.57v8.34h-17.32v9.42h13.37v8.1h-13.37v10.2h19.09v8.52ZM458.9,211.16c-1.11,2.09-3.03,3.73-5.74,4.92-2.72,1.19-6.48,1.79-11.31,1.79-2.09,0-4.23-.06-6.43-.17-2.2-.11-3.93-.2-5.18-.25h-5.71v-44.64l5.53.06c1.03,0,2.08-.03,3.15-.1,1.06-.07,2.21-.14,3.45-.21,1.24-.07,2.62-.11,4.16-.11,4.19,0,7.57.46,10.12,1.39,2.55.93,4.4,2.25,5.55,3.96,1.14,1.71,1.72,3.75,1.72,6.1,0,1.58-.25,3.04-.74,4.4-.5,1.35-1.25,2.51-2.26,3.48-1.01.97-2.28,1.67-3.8,2.08,1.74.22,3.31.77,4.7,1.65s2.48,2.04,3.28,3.46,1.2,3.08,1.2,4.96c0,2.72-.56,5.12-1.67,7.21Z"
     id="path7"
     style="fill:#be1a78;fill-opacity:1" />
  <path
     class="cls-2"
     d="M437.95,191.17c.43.02.85.04,1.23.04.38.01.71.02.97.02,2.41,0,4.22-.46,5.42-1.4,1.21-.93,1.81-2.56,1.81-4.9,0-1.86-.66-3.16-1.99-3.89-1.33-.73-3.24-1.09-5.73-1.09-.28,0-.7.01-1.25.03s-1.08.05-1.6.1c-.52.05-.87.12-1.05.23v10.68c.24.04.56.08.94.1.38.03.79.06,1.23.08Z"
     id="path8"
     style="fill:#be1a78;fill-opacity:1" />
  <path
     class="cls-2"
     d="M447.13,199.63c-1.27-1-3.33-1.5-6.18-1.5-.36,0-.8,0-1.31.02-.51,0-1.02.03-1.55.04-.53.02-1,.04-1.41.08-.42.03-.71.06-.9.1v11.52c.26.16.72.29,1.37.39.65.1,1.35.17,2.11.21s1.44.06,2.05.06c2.59,0,4.53-.5,5.81-1.51s1.91-2.68,1.91-5.03c0-1.92-.63-3.38-1.9-4.38Z"
     id="path9"
     style="fill:#be1a78;fill-opacity:1" />
</svg>
